<?xml version="1.0" encoding="UTF-8" standalone="no"?>
<svg xmlns:rdf="http://www.w3.org/1999/02/22-rdf-syntax-ns#" xmlns="http://www.w3.org/2000/svg" height="222.676" width="896.792" version="1.1" xmlns:cc="http://creativecommons.org/ns#" xmlns:xlink="http://www.w3.org/1999/xlink" xmlns:dc="http://purl.org/dc/elements/1.1/">
 <g transform="translate(-25.9498 -25.4006)">
  <path d="m908.095 95.1843h0.76125c0.48875 0 0.845-0.0725 0.845-0.61 0-0.47-0.49125-0.5425-0.88125-0.5425h-0.725v1.1525zm-0.8525-1.83875h1.63125c1.08125 0 1.68875 0.34625 1.68875 1.30625 0 0.8075-0.495 1.12375-1.135 1.1775l1.1575 1.92h-0.89625l-1.05625-1.87875h-0.5375v1.87875h-0.8525v-4.40375zm1.53375 5.3075c1.6 0 2.90875-1.3025 2.90875-3.09875 0-1.78625-1.30875-3.08-2.90875-3.08-1.61375 0-2.9075 1.29375-2.9075 3.08 0 1.79625 1.29375 3.09875 2.9075 3.09875zm0-7.0175c2.095 0 3.965 1.535 3.965 3.91875 0 2.39375-1.87 3.94125-3.965 3.94125s-3.965-1.5475-3.965-3.94125c0-2.38375 1.87-3.91875 3.965-3.91875"/>
  <path d="m845.128 123.336c5.25625 2.46625 11.415-1.46875 13.7575-8.78175 2.34125-7.3335-0.015-15.276-5.27875-17.751-5.25625-2.4675-11.425 1.46875-13.7638 8.7875-2.335 7.335 0.0288 15.2642 5.285 17.7452"/>
  <path d="m884.072 130.529 15.315-0.0132 1.27625-4.09713h-15.3962c4.39375-14.962 8.93625-29.2332 12.1212-39.467-7.05375 0.29375-9.24 0.5725-15.35 0.5725-3.2825 10.8725-7.46 24.7988-11.4362 38.9091h-7.46625l-1.285 4.11038 7.605-0.006c-4.105 14.7622-7.85 29.4316-9.9475 40.648-11.7612 26.8261-18.5362 28.1475-18.3238 15.7851 0.24125-14.1201 13.3025-55.7211 13.3025-55.7211l-17.9938 0.16113s-13.0025 43.5326-14.0538 47c-1.73625 5.81487-3.66125 8.41112-6.68625 12.2001-5.27125 6.62263-8.1625 4.3535-7.65625-3.61125 0.83125-13.3028 5.9975-33.0499 13.095-55.7208l-17.7862 0.15338c-4.06875 13.5156-6.835 24.0214-8.64 32.287-2.91625 13.2241-3.41375 15.2852-6.4625 20.5714-7.88375 13.7362-12.4662 12.5902-11.8488 2.72413 0.82375-13.2876 5.9775-33.0366 13.0775-55.7212-6.10125 0.23487-9.7575 0.1465-16.8275 0.16212-8.655 29.085-15.55 44.2549-20.7475 52.4165 0.25625-1.35012 0.44625-2.73137 0.4825-4.21387 0.56-22.935-21.955-26.9716-21.33-37.5884 0.4525-7.63425 6.58375-7.53225 7.295-7.53225 6.7175 0 6.6075 8.16413 9.5375 11.6206 4.3375 5.149 13.5738-2.01613 8.215-10.0932-2.615-3.956-8.5225-6.12163-14.0888-6.12163-6.94375 0.006-15.5125 2.06938-20.1812 9.22713-0.5075 0.60937-1.03625 1.351-1.6375 2.27687-2.9225 5.747-7.24375 4.44088-8.64-0.125 3.105-3.92137 8.14-8.06837 8.31875-15.483 0.16875-6.41012-8.69375-6.23287-12.4388 3.09675-1.67375 4.14888-1.73875 8.90625-0.73125 12.4721-3.0725 4.69237-6.21125 11.6152-8.65 17.041 0.61-4.01613 0.89625-6.71875 0.96125-9.36038 0.33125-11.5262-3.545-17.5756-11.9162-17.5756-5.145 0.008-9.38625 4.1255-13.0362 10.2784-7.15125 12.0679-13.9188 33.229-21.2988 46.8228-3.69125 6.7915-7.0975 8.2075-6.49-1.51862 0.83125-13.2974 6.2125-33.4399 13.31-56.126-7.045 0.27987-11.8838 0.55862-18.0012 0.55862-4.205 13.9488-7.00125 24.6895-8.8225 33.0801-2.6275 12.1562-4.7575 17.6348-7.93625 22.5971-6.8425 10.7026-10.7325 9.044-10.1612-0.0889 0.85125-13.3022 6.2275-33.4462 13.3175-56.1319-7.05375 0.27838-11.8775 0.55713-18.0075 0.565-6.08625 20.2319-9.85875 35.7969-11.3212 45.1196-3.01125 19.315 0.89625 26.0128 11.4762 26.0128 5.6075 0 12.6862-4.774 19.71-17.9288 0 0.11862-0.0213 0.23337-0.0213 0.34375-0.33875 11.5185 3.5525 17.5698 11.9075 17.5698 5.57125-0.0151 10.175-4.90525 14.045-11.9462 7.83875-14.2188 13.9775-35.1998 21.2375-46.543 4.30125-6.71725 6.04875-4.809 5.5575 2.91412-0.83 13.2729-6.21125 33.4399-13.3038 56.1186 7.04-0.27975 11.8862-0.55863 18.0025-0.55863 4.9175-17.2309 9.765-38.5272 21.5325-57.894 2.295 3.605 6.3475 5.75438 9.88875 3.27388-0.14875 1.0855-0.25125 2.21687-0.29375 3.4205-0.5075 20.9824 21.0838 22.1732 20.695 38.2772-0.0962 4.39263-4.455 9.67875-10.2625 9.69-8.20125 0-6.965-8.456-8.39875-13.7261-1.93125-7.17275-11.8775-5.48387-12.4138 3.33263-0.2875 4.9775 3.8675 13.9335 19.1812 13.9272 4.83125-0.007 9.84375-1.37263 14.14-4.01763 7.555-4.15475 15.8875-14.5938 21.4138-29.0274-1.23375 6.54887-1.77 11.4101-1.865 15.1089-0.33 11.52 2.6225 17.5674 10.9688 17.5611 5.62375 0 12.7288-4.78763 19.7575-18.0089 0 0.13288-0.0163 0.28613-0.0163 0.43363-0.34625 11.5102 3.5475 17.56 11.9075 17.56 6.0275 0 14.9712-4.84463 21.3862-21.0259-0.105 1.2335-0.1775 2.396-0.20125 3.44338-0.34375 11.5176 3.5475 17.5679 11.9112 17.5591 6.02625-0.006 13.78-5.5025 21.3088-21.0761-0.115 1.27237-0.205 2.4375-0.23375 3.496-0.3375 11.5176 3.545 17.5689 11.9075 17.5601 7.2825 0 17.0488-7.96637 25.9375-32.0312 0.905-2.53275-0.975-4.19137-2.195-1.34275-12.46 28.6514-22.6412 30.435-21.8388 17.81 0.835-13.2011 6.39875-35.1796 12.5375-56.4262"/>
  <path d="m315.229 140.778c-0.22875 9.02099 2.49375 10.7339 2.2825 19.2789-0.56375 22.9184-26.5612 44.561-25.4525 26.8246 0.845-13.2724 5.81375-33.8891 12.9062-56.5869-7.04 0.28712-11.4825 1.02875-17.59 1.02875-4.91125 22.7285-13.4138 43.5332-14.4475 46.9981-1.74875 5.81388-3.67125 8.42138-6.69625 12.2099-5.27 6.62163-8.14875 4.338-7.6575-3.621 0.79375-12.6851 5.735-31.6241 12.3638-53.062 0.31625-1.01325 1.1675-3.84775 1.49125-4.86038-6.66625 1.46875-13.4638 2.34813-18.545 2.35588-5.55 18.7276-15.3212 17.5386-18.0962 10.5514 4.65375-5.7935 7.81875-8.67875 8.00875-16.1812 0.16125-6.42425-8.23-6.24062-11.9725 3.09038-1.74125 4.33837-1.645 8.7285-0.39625 12.3985-2.49 3.67187-5.5375 8.04825-9.12625 16.3735 0.39-2.937 0.5725-6.52838 0.63875-8.61963 0.33125-11.5195-3.5525-17.5611-11.915-17.5611-7.2825 0-17.0912 7.54787-25.9375 32.0235-1.17375 3.27387 1.0425 4.125 2.20375 1.335 12.03-28.9019 19.9838-30.4361 19.19-17.8018-0.83875 13.2949-6.21875 33.4482-13.3175 56.123 7.055-0.27875 11.9-0.5425 18-0.54737 2.84875-9.43651 5.04375-17.3863 6.74-24.1475 5.455-17.7964 10.9375-27.2152 15.445-33.351 3.6425 5.27638 10.1688 7.29638 16.1 1.70951-5.3725 19.7201-7.15 31.04-7.32625 38.1762-0.33875 11.5113 3.55375 17.56 11.915 17.5528 6.1825-0.008 15.44-5.06649 21.8862-22.3101-0.17125 1.76125-0.28125 3.33888-0.3175 4.73387-0.3375 11.5049 3.55375 17.5601 11.9075 17.5538 22.6338-0.008 40.9275-48.1958 41.2662-61.6601 0.41875-16.8335-13.1488-16.0996-13.5512-0.007"/>
  <path d="m270.849 97.1543c-5.255-2.4725-11.415 1.47-13.75 8.78125-2.35625 7.33488 0 15.2709 5.27 17.7519 5.2575 2.46675 11.41-1.46875 13.7588-8.77938 2.33625-7.335-0.0213-15.2788-5.27875-17.7538"/>
  <path d="m350.804 123.637c5.25625 2.4585 11.415-1.46975 13.7512-8.789 2.35625-7.32625-0.015-15.27-5.27875-17.7438-5.24875-2.475-11.4012 1.46125-13.7575 8.7875-2.335 7.32688 0.03 15.2706 5.285 17.7452"/>
  <path d="m402.62 150.373c-4.60375 17.435-6.175 27.7725-6.32875 34.4478v0.0786c-4.31625 7.23875-9.295 13.2362-13.61 13.2436-8.745 0-1.755-37.4921 9.6525-57.812 6.1825-11.02 11.1812-4.31013 10.2862 10.042zm188.422-96.5449c-16.445-12.54-43.0075-18.4425-67.2238-18.4275-82.555 0.04375-103.448 58.8712-81.7625 90.048-4.485 16.3291-8.70625 32.9874-11.275 46.1934-11.5925 26.2388-18.815 27.3975-18.0375 15.166 0.82875-13.271 6.21-33.4321 13.3025-56.125-7.04125 0.28663-11.8788 0.5665-18.0012 0.5665-1.0725 3.58151-2.06375 6.95988-2.96625 10.1381-2.445-14.3379-13.6188-11.8496-22.4712-5.74125-11.4238 7.89162-19.095 25.4005-20.0138 40.5181-10.38 21.8471-16.715 22.185-15.9888 10.6875 0.79375-12.7739 5.8-31.8916 12.495-53.5328 0.27125-0.85149 1.08625-3.51662 1.35125-4.39012-6.27 1.20463-12.43 2.3565-18.545 2.36425-8.8975 29.5571-11.5475 44.7525-11.7675 53.562-0.33125 11.5112 3.56 17.5615 11.9212 17.5615 5.82875-0.009 13.2738-5.15525 20.5775-19.5864 0.94 11.0928 6.36625 19.5712 17.7375 19.564 6.05625-0.008 11.54-5.42775 16.115-12.2974 0.88875 8.06837 4.7425 12.2822 11.7075 12.2759 5.9475 0 13.56-5.336 20.99-20.4024-0.095 1.02737-0.1675 1.98975-0.19875 2.82625-0.33625 11.5102 3.56 17.5615 11.9225 17.5615 7.275-0.008 17.0462-7.9575 25.9288-32.0302 1.22-3.38488-0.82875-4.501-2.195-1.34375-12.435 28.6899-23.3 30.435-22.5075 17.81 0.6975-11.2026 5.2125-30.4824 10.4538-49.5551 6.9475 4.5385 19.3738 5.91063 26.9875 5.726 17.9862-0.42525 37.6538-9.73437 43.8288-32.6896 6.59-24.5288-5.9975-36.31-15.9375-39.1525-9.16375-2.62625-28.735 0.515-27.2525 16.4462 0 0 0.5575 2.085 1.7925 0-1.09625-12.0562 18.3675-20.5125 30.4888-8.60375 6.8775 6.7525 12.5875 21.905 2.8825 39.774-7.72875 14.2354-25.51 21.8331-40.2812 20.2612-5.71875-0.60888-16.3925-2.496-21.2975-5.94525 5.29375-18.8018 11.4462-38.5575 15.22-50.5988-7.04875 0.28125-8.5675 0.5525-14.69 0.5525-2.85625 9.47-6.51125 21.7825-10.0225 34.2469-13.125-29.1894 9.0525-79.3306 79.0875-79.3744 23.5225-0.01375 46.0538 7.20875 60.5088 19.8212 26.1212 22.8025 12.07 73.5239-5.47625 87.5966-6.115 5.97562-14.8212 7.22412-20.8262 5.84474-16.5638-3.81837-9.36125-28.4257 2.41375-28.4414 2.615-0.38037 3.2975-2.334 0.0213-2.49613-18.7788 1.145-26.7062 35.9439 4.92625 35.9229 40.4238-0.023 73.4888-66.1605 26.0775-102.302"/>
  <path d="m124.022 129.577c-3.685 7.34025-11.3056 13.0371-23.8735 14.0796-2.92925 0.25088-8.04587 0.2875-14.1255-0.9835-6.70162-1.41837-14.0508-6.519-18.1778-12.3935 7.291-4.26325 15.3301-7.00387 26.1436-8.0005 13.5893-1.2495 23.4253 1.894 30.0331 7.29788zm2.481 2.27487c10.668 11.0845 10.4258 29.043 2.32713 40.583-5.38775 7.67974-14.5938 13.1475-26.085 11.7011-8.71925-1.09863-10.3271-5.74013-9.79875-7.20888 0.40325-1.10112-0.544-1.90625-1.36625-0.96737-0.953125 1.1065-0.09475 3.90487 0.961875 5.54737 2.041 3.1865 8.38388 4.8325 12.525 4.979 11.2982 0.41213 21.165-4.17037 27.9481-12.0175 11.8268-13.6778 13.4131-36.1568-3.65475-47.983 2.8325-7.13663 2.605-15.2346-1.46775-22.6196-3.13525-5.6825-9.53913-9.83-14.435-11.13-8.1255-2.1575-13.1178-0.425-16.3424 1.44-1.90188 1.11625-3.208 2.40625-3.8095 3.34125-1.629 2.4875 0.522375 1.99625 1.43888 0.8275 0.544-0.70375 1.45262-1.79 2.23838-2.22375 5.30175-2.91375 11.1606-1.8125 14.9701-0.69625 7.55375 2.18625 12.9644 9.58 14.3076 17.1775 0.69775 3.95025 0.59625 7.98738-0.33637 11.8131-7.62113-4.09088-18.1406-6.36575-32.1329-5.645-8.17188 0.42475-20.0498 3.93312-27.8535 8.50087-8.02388-14.229-7.517-35.2165 6.20262-50.5528 14.4415-16.18 36.3985-20.6288 62.8731-14.2862 15.6362 3.735 35.0172 10.27 55.7335 14.9312 5.6825 1.2925 11.6138 2.255 17.59 2.87875-49.2748 10.9375-43.9362 71.762-62.6288 104.394-11.768 20.5338-30.7451 31.1715-48.52 31.9288-13.0728 0.57125-24.3638-2.34225-33.5938-9.09613-26.0312-17.5762-26.708-56.0732 1.52888-75.4556 4.58838 6.22562 13.1171 12.0405 22.354 13.4644 0 0 7.355 1.10113 13.4849 0.543 11.5629-1.05712 20.4678-6.65137 25.5405-14.1685zm145.345-65.1614c-25.739 7.0775-81.768-12.5838-122.116-19.4638-33.5284-5.705-62.0796 1.37375-77.8266 18.2138-23.3951 24.9762-18.6168 51.0812-8.94925 63.9724-37.5362 25.6231-33.8936 66.9702-1.72412 84.3975 9.76262 5.29888 20.4526 7.334 34.8711 7.185 21.1801-0.18837 46.1479-12.2139 61.748-29.0024 27.6099-29.7651 24.6311-83.8762 46.4049-104.249 3.4425-3.2375 9.88125-6.03375 16.24-6.695 22.8825 0.6175 45.845-4.81 58.7012-12.29 8.57375-5.0075 13.0662-6.24625 13.0662-10.41l-20.4162 8.34125"/>
  <path d="m575.289 60.4868c-30.9275 6.6425-40.4375 31.97-46.7638 58.9135 0 0-1.49875 6.84175-4.0825 17.0908 0 0-13.4062 69.9932-37.4925 89.7032-13.04 10.6675-22.745 7.51025-27.23 1.12402-3.78875-5.4028-3.51625-13.1416-1.46125-16.7978 4.80125-8.48487 15.5325-6.62112 19.1838-5.88725 0.69625 0.1035 1.34875-0.36037 1.44625-1.085 0.10875-0.73537-0.38125-1.41162-1.08-1.51262 0 0-17.5312-4.81738-23.7262 7.4575-6.205 12.2612 2.93625 32.7002 25.5688 27.854 22.635-4.84668 48.5362-39.4316 57.2788-75.499 2.39125-8.399 4.4425-16.7544 5.66-24.3731 0 0 3.19375-12.9209 3.70625-14.8735 7.335-28.5596 11.68-45.9271 22.575-54.1046 3.6625-2.74625 5.29375-3.84875 8.15625-5.02375 5.065-2.06875 4.7725-4.375-1.73875-2.98625"/>
 </g>
</svg>
